<svg id="Слой_1" xmlns="http://www.w3.org/2000/svg" viewBox="0 0 221 221"><style>.st0{fill:#fff}</style><path class="st0" d="M197 112.5l23.9.6v-4l-23.9.3v-.8l23.9-.5c0-1.3-.1-2.7-.2-4l-23.9 1.3v-.7l23.9-1.6c-.1-1.3-.2-2.7-.3-4l-23.8 2.4-.1-.8 23.8-2.7c-.1-1.3-.3-2.6-.5-4l-23.7 3.5-.1-.8 23.6-3.7c-.2-1.3-.4-2.6-.7-3.9l-23.5 4.6-.2-.8 23.4-4.8-.9-3.9-23.1 5.8-.2-.7 23.2-5.8c-.3-1.3-.7-2.6-1.1-3.9l-23 6.6-.2-.7 22.9-6.9c-.4-1.3-.8-2.6-1.2-3.8l-22.6 7.7-.3-.8 22.5-7.9c-.4-1.3-.9-2.5-1.4-3.8L191 78.8l-.3-.7 22.2-8.9c-.5-1.2-1-2.5-1.6-3.7l-21.8 9.8-.3-.8 21.7-9.9c-.6-1.2-1.1-2.4-1.7-3.6l-21.3 10.7-.4-.7 21.2-10.9c-.6-1.2-1.2-2.4-1.9-3.5L186 68.2l-.4-.7 20.7-11.9c-.7-1.2-1.4-2.3-2.1-3.4L184 64.9l-.4-.7 20.2-12.8c-.7-1.1-1.5-2.2-2.2-3.3l-19.7 13.5-.5-.7L201 47.2c-.8-1.1-1.5-2.2-2.4-3.2l-19 14.4-.5-.6L198 43.2c-.8-1.1-1.6-2.1-2.5-3.1l-18.4 15.2-.5-.6 18.2-15.4c-.9-1-1.7-2-2.6-3l-17.7 16-.6-.6 17.6-16.2c-.9-1-1.8-1.9-2.8-2.9l-16.9 16.8-.6-.6L188.1 32c-.9-.9-1.9-1.9-2.9-2.8L169 46.7l-.6-.5 16-17.7c-1-.9-2-1.8-3-2.6L166 44.1l-.6-.5 15.2-18.4c-1-.8-2.1-1.7-3.1-2.5L163 41.6l-.6-.5L176.7 22c-1.1-.8-2.1-1.6-3.2-2.3l-13.7 19.5-.6-.4 13.4-19.7c-1.1-.7-2.2-1.5-3.3-2.2l-12.7 20.2-.7-.4 12.6-20.3c-1.1-.7-2.3-1.4-3.4-2l-11.8 20.7-.7-.4 11.6-20.8c-1.2-.6-2.3-1.3-3.5-1.9l-10.9 21.2-.7-.4 10.7-21.3c-1.2-.6-2.4-1.2-3.6-1.7l-9.9 21.7-.7-.3 9.7-21.8c-1.2-.5-2.4-1.1-3.7-1.6l-8.9 22.1-.7-.3 8.7-22.2c-1.2-.5-2.5-.9-3.7-1.4l-7.9 22.5-.7-.3L146.1 6c-1.3-.4-2.5-.8-3.8-1.2l-6.8 22.8-.7-.2 6.6-22.9c-1.3-.4-2.6-.7-3.9-1l-5.8 23.1-.7-.2 5.6-23.2-3.9-.9-4.8 23.4-.7-.1 4.5-23.4c-1.3-.3-2.6-.5-3.9-.7L124 25l-.8-.1 3.5-23.6c-1.3-.2-2.6-.4-4-.5l-2.6 23.7-.7-.1L121.8.7c-1.3-.1-2.6-.2-4-.3l-1.5 23.8h-.8L116.8.4c-1.3-.1-2.7-.1-4-.2l-.5 23.8h-.8l.2-23.8h-4l.6 23.8h-.8L106.7.2c-1.3 0-2.7.1-4 .2l1.6 23.8-.8.1L101.6.5c-1.3.1-2.7.2-4 .4l2.7 23.7-.8.1L96.8 1c-1.3.2-2.6.4-4 .6l3.8 23.5-.7.1-4-23.5c-1.3.2-2.6.5-3.9.7l4.9 23.4-.9.2-5-23.3-3.9.9L89 26.7l-.7.2-6.2-23c-1.3.3-2.6.7-3.8 1.1l7 22.8-.8.2-7.2-22.8c-1.3.4-2.5.8-3.8 1.3l8 22.5-.8.3-8.1-22.5c-1.3.5-2.5.9-3.7 1.4l9 22.1-.8.3-9.2-22c-1.2.5-2.5 1.1-3.7 1.6l10 21.7-.7.3-10.2-21.5-3.6 1.8 11 21.2-.7.3-11.1-21.1c-1.2.6-2.4 1.3-3.5 1.9l11.9 20.7-.7.4-12.1-20.5c-1.1.7-2.3 1.4-3.4 2.1l12.9 20-.7.5-13-20c-1.1.7-2.2 1.5-3.3 2.2l13.8 19.5-.6.4-14-19.4c-1.1.8-2.2 1.6-3.2 2.4L57.6 42l-.6.5-14.9-18.7c-1 .8-2.1 1.7-3.1 2.5l15.5 18.2-.6.5-15.6-18-3 2.7 16.3 17.5-.6.5-16.4-17.4c-1 .9-1.9 1.8-2.9 2.8l17.1 16.7-.5.6L31 33.9c-.9 1-1.8 1.9-2.7 2.9l17.8 16-.5.6-18-15.9c-.9 1-1.7 2-2.6 3l18.5 15.2-.5.6-18.6-15c-.8 1-1.7 2.1-2.5 3.1l19.2 14.3-.5.6-19.2-14c-.8 1.1-1.6 2.2-2.3 3.3L38.9 62l-.4.7-20-13.3c-.7 1.1-1.5 2.2-2.2 3.4l20.4 12.5-.4.7-20.5-12.4c-.7 1.1-1.3 2.3-2 3.5l20.9 11.6-.4.7-21-11.4c-.6 1.2-1.2 2.3-1.8 3.5L33 72.1l-.3.7-21.6-10.5c-.6 1.2-1.1 2.4-1.7 3.6l21.9 9.7-.3.7-22-9.4c-.5 1.2-1 2.4-1.5 3.7l22.3 8.7-.3.7-22.4-8.5c-.5 1.2-.9 2.5-1.4 3.8l22.7 7.6-.2.7-22.7-7.4c-.4 1.3-.8 2.5-1.2 3.8l23 6.6-.2.7L4 81c-.4 1.3-.7 2.6-1 3.9l23.3 5.5-.2.7-23.3-5.3c-.3 1.3-.6 2.6-.8 3.9l23.6 4.5-.2.8-23.6-4.3-.6 3.9L24.9 98l-.1.7-23.8-3c-.2 1.3-.3 2.6-.5 4l23.9 2.3-.1.8-23.9-2.1c-.1 1.3-.2 2.7-.3 4l24 1.3v.8l-24-1c-.1 1.3-.1 2.7-.1 4l24 .2v.8H0v-.1.1c0 61 49.5 110.5 110.5 110.5 41 0 76.8-22.3 95.8-55.5l-.1.1c-.1.2-.2.4-.4.6l-20.7-12.1.4-.7 20.8 12c.7-1.2 1.3-2.3 1.9-3.5L187 151l.4-.7 21.3 11 1.8-3.6-21.7-10.2.3-.7 21.8 10c.6-1.2 1.1-2.4 1.6-3.7l-22.1-9.3.3-.7 22.2 9c.5-1.2 1-2.5 1.4-3.7l-22.5-8.2.3-.7 22.6 8c.4-1.3.9-2.5 1.3-3.8l-22.9-7.2.2-.7 22.9 6.9c.4-1.3.7-2.6 1.1-3.8l-23.2-6.1.2-.8 23.2 5.9.9-3.9-23.4-5.1.2-.7 23.5 4.8c.3-1.3.5-2.6.7-3.9l-23.6-4 .1-.8 23.7 3.8c.2-1.3.4-2.6.6-4l-23.8-3 .1-.8 23.8 2.7c.1-1.3.3-2.6.4-4l-23.9-1.8.1-.8 23.9 1.6c.1-1.3.2-2.7.2-4l-23.9-.8-.1-.7zM.1 114.6l24-.9v.8l-24 1.1v-1zm.3 5l23.9-2 .1.8-23.9 2.1c-.1-.2-.1-.6-.1-.9zm.5 5l23.8-3 .1.8L1 125.5c0-.3-.1-.6-.1-.9zm.9 5.9c-.1-.3-.1-.7-.2-1l23.6-4.1.1.8-23.5 4.3zm.9 4.4c0-.2-.1-.4-.1-.5l23.4-5.2.2.7-23.4 5.4c0-.1 0-.2-.1-.4zm1.1 4.4L27 133l.2.7-23.1 6.5-.3-.9zm1.6 5.3c-.1-.2-.1-.4-.2-.6l22.9-7.3.2.7L5.5 145c0-.1-.1-.3-.1-.4zm1.4 4.2l22.5-8.4.3.8-22.4 8.5c-.1-.3-.2-.6-.4-.9zm1.9 4.7l22.1-9.3.3.7-22 9.5c-.2-.3-.3-.6-.4-.9zm2.5 5.4c-.1-.3-.3-.6-.4-.9l21.7-10.3.4.7-21.7 10.5zm1.8 3.6l21.2-11.3.4.7-21.1 11.5c-.2-.3-.4-.6-.5-.9zm2.5 4.4l20.6-12.2.4.6L16 167.7c-.2-.3-.4-.6-.5-.8zm2.6 4.2l20.1-13.2.4.6-19.9 13.4c-.2-.2-.4-.5-.6-.8zm3.2 4.6c-.1-.2-.3-.4-.4-.5l19.4-14.1.4.6L21.5 176c0-.1-.1-.2-.2-.3zm2.8 3.6c-.1 0-.1-.1 0 0l18.7-15 .5.7-18.7 15c-.2-.2-.4-.5-.5-.7zm3.2 3.9l-.2-.2 18.1-15.8.6.6-18 15.9-.5-.5zm3.9 4.3l-.7-.7 17.4-16.6.5.6-17.2 16.7zm2.9 2.8L50.7 173l.6.6L34.8 191c-.2-.3-.5-.5-.7-.7zm4.4 4c-.3-.2-.5-.4-.8-.7l15.8-18 .6.5-15.6 18.2zm3.1 2.6l15-18.7.6.4-14.8 18.9c-.3-.2-.6-.4-.8-.6zm4.4 3.3c-.1-.1-.3-.2-.4-.3l14.1-19.4.7.5-13.9 19.5c-.3-.1-.4-.2-.5-.3zm4.3 2.9c-.2-.1-.4-.3-.6-.4l13.2-20 .6.4-13 20.1c-.1 0-.2 0-.2-.1zm4.2 2.7c-.2-.1-.4-.3-.7-.4l12.3-20.6.6.4-12.1 20.7c.1-.1 0-.1-.1-.1zm3.8 2.1s-.1 0-.1-.1l11.4-21.1.7.4-11.2 21.2c-.3-.1-.5-.3-.8-.4zm4.4 2.2L73 188.5l.7.4-10.2 21.7c-.2-.2-.5-.3-.8-.5zm4.5 2.1l9.4-22.1.8.3-9.2 22.1c-.4-.1-.7-.2-1-.3zm5.6 2.2l-.9-.3 8.4-22.5.8.3-8.3 22.5zm4.3 1.4c-.2-.1-.3-.1-.5-.2l7.4-22.8.7.2-7.2 23c-.1-.1-.3-.1-.4-.2zm4.2 1.3l6.3-23.1.7.2-6.1 23.2c-.2-.1-.5-.2-.9-.3zm5.4 1.3c-.2 0-.3-.1-.5-.1l5.3-23.4.8.2-5.1 23.5c-.2-.1-.3-.2-.5-.2zm4.4.9l4.2-23.6.8.1-4 23.7c-.3-.1-.7-.2-1-.2zm5.9.9c-.3 0-.7-.1-1-.1l3.1-23.8.8.1-2.9 23.8zm5 .5h-.1c-.3 0-.6-.1-.9-.1l2-23.9.8.1-1.8 23.9zm5 .2h-1l1-24h.8l-.8 24zm3.5.1v-24h.8l.2 24h-1zm6-.2h-1l-1.1-24h.7l1.4 24zm4-.3l-2.1-23.9.7-.1 2.4 23.9c-.3.1-.7.1-1 .1zm5.4-.6c-.2 0-.3 0-.5.1l-3.2-23.8.9-.1 3.4 23.8h-.6zm4.5-.7l-4.3-23.6.8-.2 4.4 23.6c-.2.1-.6.1-.9.2zm4.9-1l-5.3-23.4.8-.2 5.6 23.3c-.5.1-.8.2-1.1.3zm5.8-1.5c-.3.1-.6.2-1 .3l-6.4-23.1.7-.2 6.7 23zm3.8-1.2l-7.5-22.8.8-.3 7.6 22.8c-.2.1-.6.2-.9.3zm5.5-2c-.2.1-.5.2-.8.3l-8.5-22.4.7-.3 8.7 22.4h-.1zm3.9-1.5l-9.5-22 .7-.3 9.7 21.9c-.3.1-.6.2-.9.4zm5-2.4c-.2.1-.3.2-.5.2l-10.5-21.6.7-.3 10.7 21.5c-.1.1-.2.2-.4.2zm4-2l-11.5-21.1.7-.4 11.6 21c-.2.1-.5.3-.8.5zm5.2-3c-.3.2-.6.4-.8.5l-12.4-20.5.6-.4 12.6 20.4zm3.4-2.2l-13.3-19.9.6-.4 13.6 19.8c-.4.1-.7.3-.9.5zm4.9-3.5c-.3.2-.5.4-.8.6l-14.3-19.3.6-.5 14.5 19.2zm3.1-2.4l-15.1-18.7.6-.5 15.3 18.5c-.3.2-.5.4-.8.7zm4.5-3.8c-.2.2-.4.4-.6.5l-15.9-18 .5-.5 16.1 17.8c-.1.1-.1.1-.1.2zm3.3-3.2l-.3.3-16.7-17.2.6-.6 16.8 17.1c-.1.2-.3.3-.4.4zm3.5-3.6l-.3.3-17.5-16.5.5-.6 17.6 16.3c0 .3-.2.4-.3.5zm3.3-3.7l-.3.3-18.2-15.7.5-.6 18.3 15.5c0 .2-.1.4-.3.5zm2.9-3.5l-18.9-14.8.5-.6 19 14.6c-.2.3-.4.5-.6.8zm3.6-4.8c-.2.3-.4.5-.6.8l-19.5-14 .5-.7 19.6 13.9zm2.8-4.2s0 .1 0 0c-.2.3-.4.6-.5.8l-20.1-13 .4-.7 20.2 12.9z"/><path class="st0" d="M219.8 94.2c0-.3-.1-.7-.2-1h-.1c.1.3.2.7.3 1zm-1.9-9.8c-.1-.2-.1-.5-.2-.7 0-.1 0-.2-.1-.3h-.1c.2.3.2.7.4 1zm1.1 4.8c0-.1-.1-.3-.1-.4 0-.2-.1-.4-.1-.6h-.1c.1.4.1.7.3 1zm-2.4-9.7c-.1-.3-.2-.5-.2-.8v-.2h-.1c0 .4.1.7.3 1zM4.3 80c-.1.3-.2.6-.3 1 .1-.3.2-.7.3-1zM51 17.3c-.3.2-.6.4-.8.5l.1.1c.2-.1.5-.3.7-.6zM16.3 52.7c-.2.3-.3.6-.5.9h.1c.1-.3.3-.6.4-.9zM13.8 57c-.2.3-.3.6-.5.9h.1c.1-.3.3-.6.4-.9zm5.2-8.5c-.2.3-.4.6-.6.8h.1c.2-.2.4-.5.5-.8zM.2 104.6v1c-.1-.3-.1-.7 0-1zM73.5 6.3c-.3.1-.5.2-.8.3 0 0-.1 0-.1.1v.1l.9-.3v-.2zm-4.7 1.8s-.1.1 0 0c-.4.1-.6.3-.9.4l.1.1c.3-.1.6-.3.9-.4l-.1-.1zm14.3-4.7c-.3.1-.6.2-1 .3v.1c.3-.1.6-.2 1-.3v-.1zm4.8-1.1c-.4.1-.7.1-1 .2v.1c.3-.1.6-.1 1-.2v-.1zm-28.2 10c-.3.2-.6.3-.9.5l.1.1c.3-.2.6-.3.9-.5l-.1-.1zM42.9 23.1c-.3.2-.5.4-.8.6l.1.1c.2-.2.5-.4.7-.7zm168.5 42.3c-.1-.3-.3-.6-.4-.9h-.1c.1.3.3.6.4.9h.1zM92.8 1.4c-.3 0-.5.1-.8.1h-.2v.1c.3-.1.7-.1 1-.2zm-28.6 8.7c-.3.1-.6.3-.9.4l.1.1c.3-.1.6-.3.9-.4l-.1-.1zm92.1-.2c-.3-.1-.6-.3-.9-.4l-.1.1c.3.1.6.3.9.4l.1-.1zM39 26.3c-.3.2-.5.4-.8.6l.1.1c.2-.2.5-.4.7-.7zm121.8-14.2c-.1-.1-.2-.1-.3-.2l-.6-.3-.1.1c.3.1.6.3.9.4h.1zm8.7 4.9s-.1 0 0 0c-.3-.2-.6-.4-.8-.5l-.1.1c.3.2.6.4.8.5l.1-.1zM147.1 6.2c-.1 0-.1 0-.2-.1-.3-.1-.5-.2-.8-.3V6l.9.3.1-.1zM112.8 0h-1v.2h1V0zm24.7 3.3c-.3-.1-.6-.2-1-.2v.2c.3.1.6.2 1 .2v-.2zM122.7.7c-.3 0-.7-.1-1-.1v.2c.3 0 .7.1 1 .1V.7zM107.8 0h-1v.2h1V0zm24.8 2.2h-.1c-.3-.1-.6-.1-.8-.2v.2c.3.1.7.1 1 .2l-.1-.2zM55.3 14.7c-.3.2-.6.3-.9.5l.1.1c.3-.2.6-.3.9-.5l-.1-.1zm133.5 18c-.1-.3-.4-.6-.6-.8l-.1.1.7.7zM.5 99.6c0 .3-.1.7-.1 1 .1-.3.1-.6.1-1zM195.6 40c-.1-.1-.2-.3-.4-.4l-.3-.3-.1.1c.2.3.4.5.6.8l.2-.2zm-3.3-3.8c-.2-.2-.4-.5-.7-.7l-.1.1.7.7.1-.1zM2 89.7c0 .1-.1.3-.1.4 0 .2-.1.4-.1.6 0-.3.1-.6.2-1zm29.7-56.6l-.7.7.1.1c.2-.3.4-.5.6-.8zm175.2 23.4l-.3-.6c0-.1-.1-.2-.1-.3l-.1.1c.2.3.3.6.5.9v-.1zm-2.5-4.3c-.1-.2-.2-.3-.3-.5-.1-.1-.2-.2-.2-.4l-.1.1c.2.3.4.6.5.8h.1zm-5.7-8.3c-.2-.2-.3-.4-.5-.6 0-.1-.1-.1-.1-.2l-.1.1c.2.3.4.5.6.8l.1-.1zm10.6 17c-.2-.3-.3-.6-.4-.9l-.1.1c.2.3.3.6.5.9v-.1zM7.4 70.5c-.1.2-.2.4-.2.6 0 .1-.1.2-.1.3.2-.2.3-.5.3-.9zM3 84.8c-.1.3-.2.6-.2 1 .1-.3.1-.6.2-1zm22-44.3c-.1.1-.2.3-.4.4l-.3.3.1.1c.2-.2.4-.5.6-.8zm3.2-3.8l-.3.3-.4.4.1.1c.3-.2.5-.5.6-.8zM9.4 65.9c0 .1-.1.1-.1.2-.1.2-.2.5-.3.7.1-.2.3-.5.4-.9zm-3.7 9.3c-.1.3-.2.6-.3 1 .2-.3.3-.6.3-1zm179.6-46.1l-.7-.7-.1.1c.2.2.5.4.7.7l.1-.1zm-7.6-6.4c-.3-.2-.5-.4-.8-.6l-.1.1c.3.2.5.4.8.6l.1-.1zM1.1 94.7c0 .3-.1.7-.1 1 .1-.4.1-.7.1-1zm10.4-33.3c-.1.3-.3.6-.4.9h.1c0-.3.2-.6.3-.9zm10.4-17c-.2.3-.4.5-.6.8h.1c.2-.2.4-.5.5-.8zM78.2 4.8c-.3.1-.6.2-1 .3v.1c.3-.1.6-.2 1-.3v-.1zM46.9 20.1c-.3.2-.5.4-.8.6l.1.1c.2-.2.5-.4.7-.7zm-11.7 9.5l-.7.7.1.1c.2-.3.5-.5.6-.8zm185 94.5c0-.2 0-.4.1-.6v-.4h-.1v1zM208.3 162c.1-.1.1-.2.2-.3l.3-.6c-.2.3-.4.6-.5.9zm-1.9 3.5s-.1 0 0 0c-.1 0 0 0 0 0zm9.6-21.9c.1-.3.2-.6.3-1-.2.3-.3.7-.3 1zm4.7-24.5c0-.3 0-.7.1-1h-.1v1zm-3.3 19.7c.1-.3.2-.6.3-1-.2.3-.3.7-.3 1zm2.1-9.8c0-.2.1-.4.1-.6 0-.1 0-.3.1-.4-.2.4-.2.7-.2 1zm-1 4.9c.1-.3.1-.7.2-1-.1.4-.2.7-.2 1zm2.4-19.8c.1 0 .1 0 0 0 .1-.3.1-.7.1-1h-.1v1zm-10.4 43.4c.1-.3.3-.6.4-.9-.1.3-.2.6-.4.9zm2.9-87.4c-.1-.3-.3-.6-.4-.9h-.1c.1.3.3.6.5.9zm-.9 82.9c.1-.3.3-.6.4-.9-.1.3-.2.6-.4.9zM201.7 48c-.2-.3-.4-.5-.6-.8l-.1.1c.2.3.4.5.6.8l.1-.1zm19.3 61.1v-1h-.1c0 .3 0 .7.1 1zm-6.6 39.2l.3-.9-.3.9zm6.4-44.2c0-.3 0-.7-.1-1h-.1c.1.4.1.7.2 1zm-.4-5c0-.3-.1-.7-.1-1h-.1c.1.4.1.7.2 1zm-38.9-73.3c-.3-.2-.5-.4-.8-.6l-.1.1c.3.2.5.4.8.6l.1-.1zm33.6 49l-.3-.9h-.1c.1.3.2.6.4.9zm-41.5-55c-.3-.2-.5-.4-.8-.6l-.1.1c.3.2.5.4.8.6l.1-.1zM127.7 1.3c-.3-.1-.7-.1-1-.1v.2c.3 0 .7.1 1 .1v-.2zM117.8.2c-.3 0-.7 0-1-.1v.2c.3 0 .7 0 1 .1V.2zm-15 .1c-.3 0-.7 0-1 .1v.1c.3 0 .7 0 1-.1V.3zm-5 .4c-.3 0-.7.1-1 .1v.1c.3 0 .7-.1 1-.1V.7zm67.4 13.7c-.3-.2-.6-.3-.9-.5l-.1.1c.3.2.6.3.9.5l.1-.1zm-13.5-6.5c-.3-.1-.6-.3-.9-.4l-.1.1c.3.1.6.2.9.4l.1-.1zm-9.4-3.3c-.3-.1-.6-.2-1-.3v.2c.3.1.6.2 1 .3v-.2zM0 109.6z"/></svg>