<?xml version="1.0" encoding="utf-8"?>
<!-- Generator: Adobe Illustrator 22.0.0, SVG Export Plug-In . SVG Version: 6.00 Build 0)  -->
<svg version="1.1" id="Слой_1" xmlns="http://www.w3.org/2000/svg" xmlns:xlink="http://www.w3.org/1999/xlink" x="0px" y="0px"
	 viewBox="0 0 221 221" style="enable-background:new 0 0 221 221;" xml:space="preserve">
<style type="text/css">
	.st0{fill:#FFFFFF;}
</style>
<title>Oval@2x</title>
<desc>Created with Sketch.</desc>
<g>
	<path class="st0" d="M197,112.5l23.9,0.6c0-0.8,0-1.7,0-2.5c0-0.5,0-1,0-1.5l-23.9,0.3l0-0.8l23.9-0.5c0-1.3-0.1-2.7-0.2-4
		l-23.9,1.3l0-0.7l23.9-1.6c-0.1-1.3-0.2-2.7-0.3-4l-23.8,2.4l-0.1-0.8l23.8-2.7c-0.1-1.3-0.3-2.6-0.5-4l-23.7,3.5l-0.1-0.8
		l23.6-3.7c-0.2-1.3-0.4-2.6-0.7-3.9l-23.5,4.6l-0.2-0.8l23.4-4.8c-0.3-1.3-0.6-2.6-0.9-3.9L194.6,90l-0.2-0.7l23.2-5.8
		c-0.3-1.3-0.7-2.6-1.1-3.9l-23,6.6l-0.2-0.7l22.9-6.9c-0.4-1.3-0.8-2.6-1.2-3.8l-22.6,7.7l-0.3-0.8l22.5-7.9
		c-0.4-1.3-0.9-2.5-1.4-3.8L191,78.8l-0.3-0.7l22.2-8.9c-0.5-1.2-1-2.5-1.6-3.7l-21.8,9.8l-0.3-0.8l21.7-9.9
		c-0.6-1.2-1.1-2.4-1.7-3.6l-21.3,10.7l-0.4-0.7l21.2-10.9c-0.6-1.2-1.2-2.4-1.9-3.5L186,68.2l-0.4-0.7l20.7-11.9
		c-0.7-1.2-1.4-2.3-2.1-3.4L184,64.9l-0.4-0.7l20.2-12.8c-0.7-1.1-1.5-2.2-2.2-3.3l-19.7,13.5l-0.5-0.7L201,47.2
		c-0.8-1.1-1.5-2.2-2.4-3.2l-19,14.4l-0.5-0.6L198,43.2c-0.8-1.1-1.6-2.1-2.5-3.1l-18.4,15.2l-0.5-0.6l18.2-15.4c-0.9-1-1.7-2-2.6-3
		l-17.7,16l-0.6-0.6l17.6-16.2c-0.9-1-1.8-1.9-2.8-2.9l-16.9,16.8l-0.6-0.6L188.1,32c-0.9-0.9-1.9-1.9-2.9-2.8l-16.2,17.5l-0.6-0.5
		l16-17.7c-1-0.9-2-1.8-3-2.6l-15.4,18.2l-0.6-0.5l15.2-18.4c-1-0.8-2.1-1.7-3.1-2.5l-14.5,18.9l-0.6-0.5l14.3-19.1
		c-1.1-0.8-2.1-1.6-3.2-2.3l-13.7,19.5l-0.6-0.4l13.4-19.7c-1.1-0.7-2.2-1.5-3.3-2.2l-12.7,20.2l-0.7-0.4l12.6-20.3
		c-1.1-0.7-2.3-1.4-3.4-2l-11.8,20.7l-0.7-0.4l11.6-20.8c-1.2-0.6-2.3-1.3-3.5-1.9l-10.9,21.2l-0.7-0.4l10.7-21.3
		c-1.2-0.6-2.4-1.2-3.6-1.7l-9.9,21.7l-0.7-0.3l9.7-21.8c-1.2-0.5-2.4-1.1-3.7-1.6l-8.9,22.1l-0.7-0.3l8.7-22.2
		c-1.2-0.5-2.5-0.9-3.7-1.4l-7.9,22.5l-0.7-0.3L146.1,6c-1.3-0.4-2.5-0.8-3.8-1.2l-6.8,22.8l-0.7-0.2l6.6-22.9
		c-1.3-0.4-2.6-0.7-3.9-1l-5.8,23.1l-0.7-0.2l5.6-23.2c-1.3-0.3-2.6-0.6-3.9-0.9l-4.8,23.4l-0.7-0.1l4.5-23.4
		c-1.3-0.3-2.6-0.5-3.9-0.7L124,25l-0.8-0.1l3.5-23.6c-1.3-0.2-2.6-0.4-4-0.5l-2.6,23.7l-0.7-0.1l2.4-23.7c-1.3-0.1-2.6-0.2-4-0.3
		l-1.5,23.8l-0.8,0l1.3-23.8c-1.3-0.1-2.7-0.1-4-0.2L112.3,24l-0.8,0l0.2-23.8c-0.4,0-0.9,0-1.3,0c-0.9,0-1.8,0-2.7,0l0.6,23.8
		l-0.8,0l-0.8-23.8c-1.3,0-2.7,0.1-4,0.2l1.6,23.8l-0.8,0.1l-1.9-23.8c-1.3,0.1-2.7,0.2-4,0.4l2.7,23.7l-0.8,0.1L96.8,1
		c-1.3,0.2-2.6,0.4-4,0.6l3.8,23.5l-0.7,0.1l-4-23.5c-1.3,0.2-2.6,0.5-3.9,0.7l4.9,23.4L92,26L87,2.7c-1.3,0.3-2.6,0.6-3.9,0.9
		L89,26.7l-0.7,0.2l-6.2-23c-1.3,0.3-2.6,0.7-3.8,1.1l7,22.8L84.5,28L77.3,5.2C76,5.6,74.8,6,73.5,6.5l8,22.5l-0.8,0.3L72.6,6.8
		c-1.3,0.5-2.5,0.9-3.7,1.4l9,22.1l-0.8,0.3l-9.2-22c-1.2,0.5-2.5,1.1-3.7,1.6l10,21.7l-0.7,0.3L63.3,10.7c-1.2,0.6-2.4,1.2-3.6,1.8
		l11,21.2L70,34L58.9,12.9c-1.2,0.6-2.4,1.3-3.5,1.9l11.9,20.7l-0.7,0.4L54.5,15.4c-1.1,0.7-2.3,1.4-3.4,2.1L64,37.5L63.3,38
		L50.3,18c-1.1,0.7-2.2,1.5-3.3,2.2l13.8,19.5l-0.6,0.4l-14-19.4c-1.1,0.8-2.2,1.6-3.2,2.4l14.6,18.9l-0.6,0.5L42.1,23.8
		c-1,0.8-2.1,1.7-3.1,2.5l15.5,18.2l-0.6,0.5L38.3,27c-1,0.9-2,1.8-3,2.7l16.3,17.5L51,47.7L34.6,30.3c-1,0.9-1.9,1.8-2.9,2.8
		l17.1,16.7l-0.5,0.6L31,33.9c-0.9,1-1.8,1.9-2.7,2.9l17.8,16l-0.5,0.6L27.6,37.5c-0.9,1-1.7,2-2.6,3l18.5,15.2l-0.5,0.6l-18.6-15
		c-0.8,1-1.7,2.1-2.5,3.1l19.2,14.3l-0.5,0.6L21.4,45.3c-0.8,1.1-1.6,2.2-2.3,3.3L38.9,62l-0.4,0.7L18.5,49.4
		c-0.7,1.1-1.5,2.2-2.2,3.4l20.4,12.5l-0.4,0.7L15.8,53.6c-0.7,1.1-1.3,2.3-2,3.5l20.9,11.6l-0.4,0.7l-21-11.4
		c-0.6,1.2-1.2,2.3-1.8,3.5L33,72.1l-0.3,0.7L11.1,62.3c-0.6,1.2-1.1,2.4-1.7,3.6l21.9,9.7L31,76.3L9,66.9c-0.5,1.2-1,2.4-1.5,3.7
		l22.3,8.7l-0.3,0.7L7.1,71.5c-0.5,1.2-0.9,2.5-1.4,3.8l22.7,7.6l-0.2,0.7L5.5,76.2c-0.4,1.3-0.8,2.5-1.2,3.8l23,6.6l-0.2,0.7L4,81
		c-0.4,1.3-0.7,2.6-1,3.9l23.3,5.5l-0.2,0.7L2.8,85.8c-0.3,1.3-0.6,2.6-0.8,3.9l23.6,4.5L25.4,95L1.8,90.7c-0.2,1.3-0.4,2.6-0.6,3.9
		l23.7,3.4l-0.1,0.7L1,95.7c-0.2,1.3-0.3,2.6-0.5,4l23.9,2.3l-0.1,0.8l-23.9-2.1c-0.1,1.3-0.2,2.7-0.3,4l24,1.3l0,0.8l-24-1
		c-0.1,1.3-0.1,2.7-0.1,4l24,0.2l0,0.8H0c0,0,0,0,0-0.1c0,0,0,0,0,0.1c0,61,49.5,110.5,110.5,110.5c41,0,76.8-22.3,95.8-55.5
		c0,0-0.1,0.1-0.1,0.1c-0.1,0.2-0.2,0.4-0.4,0.6l-20.7-12.1l0.4-0.7l20.8,12c0.7-1.2,1.3-2.3,1.9-3.5l-21.2-11.2l0.4-0.7l21.3,11
		c0.6-1.2,1.2-2.4,1.8-3.6l-21.7-10.2l0.3-0.7l21.8,10c0.6-1.2,1.1-2.4,1.6-3.7l-22.1-9.3l0.3-0.7l22.2,9c0.5-1.2,1-2.5,1.4-3.7
		l-22.5-8.2l0.3-0.7l22.6,8c0.4-1.3,0.9-2.5,1.3-3.8l-22.9-7.2l0.2-0.7l22.9,6.9c0.4-1.3,0.7-2.6,1.1-3.8l-23.2-6.1l0.2-0.8
		l23.2,5.9c0.3-1.3,0.6-2.6,0.9-3.9l-23.4-5.1l0.2-0.7l23.5,4.8c0.3-1.3,0.5-2.6,0.7-3.9l-23.6-4l0.1-0.8l23.7,3.8
		c0.2-1.3,0.4-2.6,0.6-4l-23.8-3l0.1-0.8l23.8,2.7c0.1-1.3,0.3-2.6,0.4-4l-23.9-1.8l0.1-0.8l23.9,1.6c0.1-1.3,0.2-2.7,0.2-4
		l-23.9-0.8L197,112.5z M0.1,114.6l24-0.9l0,0.8l-24,1.1C0.1,115.3,0.1,114.9,0.1,114.6z M0.4,119.6l23.9-2l0.1,0.8l-23.9,2.1
		C0.4,120.3,0.4,119.9,0.4,119.6z M0.9,124.6l23.8-3l0.1,0.8L1,125.5C1,125.2,0.9,124.9,0.9,124.6z M1.8,130.5
		c-0.1-0.3-0.1-0.7-0.2-1l23.6-4.1l0.1,0.8L1.8,130.5C1.8,130.5,1.8,130.5,1.8,130.5z M2.7,134.9c0-0.2-0.1-0.4-0.1-0.5l23.4-5.2
		l0.2,0.7l-23.4,5.4C2.8,135.2,2.8,135.1,2.7,134.9z M3.8,139.3L27,133l0.2,0.7l-23.1,6.5C4,139.9,3.9,139.6,3.8,139.3z M5.4,144.6
		c-0.1-0.2-0.1-0.4-0.2-0.6l22.9-7.3l0.2,0.7L5.5,145C5.5,144.9,5.4,144.7,5.4,144.6z M6.8,148.8C6.8,148.8,6.8,148.8,6.8,148.8
		l22.5-8.4l0.3,0.8l-22.4,8.5C7.1,149.4,7,149.1,6.8,148.8z M8.7,153.5l22.1-9.3l0.3,0.7l-22,9.5C8.9,154.1,8.8,153.8,8.7,153.5z
		 M11.2,158.9c-0.1-0.3-0.3-0.6-0.4-0.9c0,0,0,0,0,0l21.7-10.3l0.4,0.7L11.2,158.9C11.2,158.9,11.2,158.9,11.2,158.9z M13,162.5
		l21.2-11.3l0.4,0.7l-21.1,11.5C13.3,163.1,13.1,162.8,13,162.5z M15.5,166.9l20.6-12.2l0.4,0.6L16,167.7
		C15.8,167.4,15.6,167.1,15.5,166.9z M18.1,171.1l20.1-13.2l0.4,0.6l-19.9,13.4C18.5,171.7,18.3,171.4,18.1,171.1z M21.3,175.7
		c-0.1-0.2-0.3-0.4-0.4-0.5l19.4-14.1l0.4,0.6L21.5,176C21.5,175.9,21.4,175.8,21.3,175.7z M24.1,179.3
		C24,179.3,24,179.2,24.1,179.3l18.7-15l0.5,0.7L24.6,180C24.4,179.8,24.2,179.5,24.1,179.3z M27.3,183.2c-0.1-0.1-0.1-0.1-0.2-0.2
		l18.1-15.8l0.6,0.6l-18,15.9C27.7,183.6,27.5,183.4,27.3,183.2z M31.2,187.5c-0.2-0.2-0.5-0.5-0.7-0.7l17.4-16.6l0.5,0.6
		L31.2,187.5z M34.1,190.3C34.1,190.3,34.1,190.3,34.1,190.3l16.6-17.3l0.6,0.6L34.8,191C34.6,190.7,34.3,190.5,34.1,190.3z
		 M38.5,194.3c-0.3-0.2-0.5-0.4-0.8-0.7c0,0,0,0,0,0l15.8-18l0.6,0.5L38.5,194.3C38.5,194.3,38.5,194.3,38.5,194.3z M41.6,196.9
		C41.6,196.9,41.6,196.9,41.6,196.9l15-18.7l0.6,0.4l-14.8,18.9C42.1,197.3,41.8,197.1,41.6,196.9z M46,200.2
		c-0.1-0.1-0.3-0.2-0.4-0.3l14.1-19.4l0.7,0.5l-13.9,19.5C46.2,200.4,46.1,200.3,46,200.2z M50.3,203.1c-0.2-0.1-0.4-0.3-0.6-0.4
		l13.2-20l0.6,0.4l-13,20.1C50.4,203.2,50.3,203.2,50.3,203.1z M54.5,205.8c-0.2-0.1-0.4-0.3-0.7-0.4l12.3-20.6l0.6,0.4l-12.1,20.7
		C54.7,205.8,54.6,205.8,54.5,205.8z M58.3,207.9c0,0-0.1,0-0.1-0.1l11.4-21.1l0.7,0.4l-11.2,21.2C58.8,208.2,58.6,208,58.3,207.9z
		 M62.7,210.1C62.7,210.1,62.7,210.1,62.7,210.1L73,188.5l0.7,0.4l-10.2,21.7C63.3,210.4,63,210.3,62.7,210.1z M67.2,212.2l9.4-22.1
		l0.8,0.3l-9.2,22.1C67.8,212.4,67.5,212.3,67.2,212.2z M72.8,214.4c-0.3-0.1-0.6-0.2-0.9-0.3l8.4-22.5l0.8,0.3L72.8,214.4
		C72.8,214.4,72.8,214.4,72.8,214.4z M77.1,215.8c-0.2-0.1-0.3-0.1-0.5-0.2l7.4-22.8l0.7,0.2L77.5,216
		C77.4,215.9,77.2,215.9,77.1,215.8z M81.3,217.1l6.3-23.1l0.7,0.2l-6.1,23.2C82,217.3,81.7,217.2,81.3,217.1z M86.7,218.4
		c-0.2,0-0.3-0.1-0.5-0.1l5.3-23.4l0.8,0.2l-5.1,23.5C87,218.5,86.9,218.4,86.7,218.4z M91.1,219.3l4.2-23.6l0.8,0.1l-4,23.7
		C91.8,219.4,91.4,219.3,91.1,219.3z M97,220.2c-0.3,0-0.7-0.1-1-0.1h0l3.1-23.8l0.8,0.1L97,220.2z M102,220.7c0,0-0.1,0-0.1,0
		c-0.3,0-0.6-0.1-0.9-0.1l2-23.9l0.8,0.1L102,220.7z M107,220.9c-0.3,0-0.7,0-1,0l1-24l0.8,0L107,220.9z M110.5,221v-24l0.8,0
		l0.2,24C111.2,221,110.8,221,110.5,221z M116.5,220.8c-0.3,0-0.7,0-1,0l-1.1-24l0.7,0L116.5,220.8
		C116.5,220.8,116.5,220.8,116.5,220.8z M120.5,220.5l-2.1-23.9l0.7-0.1l2.4,23.9C121.2,220.5,120.8,220.5,120.5,220.5z
		 M125.9,219.9c-0.2,0-0.3,0-0.5,0.1l-3.2-23.8l0.9-0.1l3.4,23.8C126.3,219.9,126.1,219.9,125.9,219.9z M130.4,219.2l-4.3-23.6
		l0.8-0.2l4.4,23.6C131.1,219.1,130.7,219.1,130.4,219.2z M135.3,218.2l-5.3-23.4l0.8-0.2l5.6,23.3
		C135.9,218,135.6,218.1,135.3,218.2z M141.1,216.7c-0.3,0.1-0.6,0.2-1,0.3c0,0,0,0,0,0l-6.4-23.1l0.7-0.2L141.1,216.7
		C141.1,216.7,141.1,216.7,141.1,216.7z M144.9,215.5l-7.5-22.8l0.8-0.3l7.6,22.8C145.6,215.3,145.2,215.4,144.9,215.5z
		 M150.4,213.5c-0.2,0.1-0.5,0.2-0.8,0.3l-8.5-22.4l0.7-0.3l8.7,22.4C150.5,213.5,150.5,213.5,150.4,213.5z M154.3,212l-9.5-22
		l0.7-0.3l9.7,21.9C154.9,211.7,154.6,211.8,154.3,212z M159.3,209.6c-0.2,0.1-0.3,0.2-0.5,0.2l-10.5-21.6l0.7-0.3l10.7,21.5
		C159.6,209.5,159.5,209.6,159.3,209.6z M163.3,207.6l-11.5-21.1l0.7-0.4l11.6,21C163.9,207.2,163.6,207.4,163.3,207.6z
		 M168.5,204.6c-0.3,0.2-0.6,0.4-0.8,0.5c0,0,0,0,0,0l-12.4-20.5l0.6-0.4L168.5,204.6C168.5,204.6,168.5,204.6,168.5,204.6z
		 M171.9,202.4l-13.3-19.9l0.6-0.4l13.6,19.8C172.4,202,172.1,202.2,171.9,202.4z M176.8,198.9c-0.3,0.2-0.5,0.4-0.8,0.6l-14.3-19.3
		l0.6-0.5L176.8,198.9C176.8,198.9,176.8,198.9,176.8,198.9z M179.9,196.5l-15.1-18.7l0.6-0.5l15.3,18.5
		C180.4,196,180.2,196.2,179.9,196.5z M184.4,192.7c-0.2,0.2-0.4,0.4-0.6,0.5l-15.9-18l0.5-0.5l16.1,17.8
		C184.4,192.6,184.4,192.6,184.4,192.7z M187.7,189.5c-0.1,0.1-0.2,0.2-0.3,0.3l-16.7-17.2l0.6-0.6l16.8,17.1
		C188,189.3,187.8,189.4,187.7,189.5z M191.2,185.9c-0.1,0.1-0.2,0.2-0.3,0.3l-17.5-16.5l0.5-0.6l17.6,16.3
		C191.5,185.7,191.3,185.8,191.2,185.9z M194.5,182.2c-0.1,0.1-0.2,0.2-0.3,0.3l-18.2-15.7l0.5-0.6l18.3,15.5
		C194.8,181.9,194.7,182.1,194.5,182.2z M197.4,178.7l-18.9-14.8l0.5-0.6l19,14.6C197.8,178.2,197.6,178.4,197.4,178.7z M201,173.9
		c-0.2,0.3-0.4,0.5-0.6,0.8c0,0,0,0,0,0l-19.5-14l0.5-0.7L201,173.9C201,173.9,201,173.9,201,173.9z M203.8,169.7
		C203.8,169.7,203.8,169.8,203.8,169.7c-0.2,0.3-0.4,0.6-0.5,0.8l-20.1-13l0.4-0.7L203.8,169.7z"/>
	<path class="st0" d="M219.8,94.2C219.8,94.2,219.8,94.2,219.8,94.2c0-0.3-0.1-0.7-0.2-1l-0.1,0C219.6,93.5,219.7,93.9,219.8,94.2
		L219.8,94.2z"/>
	<path class="st0" d="M217.9,84.4c-0.1-0.2-0.1-0.5-0.2-0.7c0-0.1,0-0.2-0.1-0.3l-0.1,0C217.7,83.7,217.7,84.1,217.9,84.4
		L217.9,84.4z"/>
	<path class="st0" d="M219,89.2c0-0.1-0.1-0.3-0.1-0.4c0-0.2-0.1-0.4-0.1-0.6l-0.1,0C218.8,88.6,218.8,88.9,219,89.2L219,89.2z"/>
	<path class="st0" d="M216.6,79.5c-0.1-0.3-0.2-0.5-0.2-0.8c0-0.1,0-0.1,0-0.2l-0.1,0C216.3,78.9,216.4,79.2,216.6,79.5L216.6,79.5z
		"/>
	<path class="st0" d="M4.3,80C4.3,80,4.3,80,4.3,80c-0.1,0.3-0.2,0.6-0.3,1c0,0,0,0,0,0l0,0C4.1,80.7,4.2,80.3,4.3,80L4.3,80z"/>
	<path class="st0" d="M51,17.3C51,17.3,51,17.3,51,17.3c-0.3,0.2-0.6,0.4-0.8,0.5c0,0,0,0,0,0l0.1,0.1C50.5,17.8,50.8,17.6,51,17.3
		L51,17.3z"/>
	<path class="st0" d="M16.3,52.7C16.3,52.7,16.3,52.7,16.3,52.7c-0.2,0.3-0.3,0.6-0.5,0.9c0,0,0,0,0,0l0.1,0
		C16,53.3,16.2,53,16.3,52.7L16.3,52.7z"/>
	<path class="st0" d="M13.8,57C13.8,57,13.8,57,13.8,57c-0.2,0.3-0.3,0.6-0.5,0.9c0,0,0,0,0,0l0.1,0C13.5,57.6,13.7,57.3,13.8,57
		L13.8,57z"/>
	<path class="st0" d="M19,48.5C19,48.5,19,48.5,19,48.5c-0.2,0.3-0.4,0.6-0.6,0.8c0,0,0,0,0,0l0.1,0C18.7,49.1,18.9,48.8,19,48.5
		L19,48.5z"/>
	<path class="st0" d="M0.2,104.6C0.2,104.6,0.2,104.6,0.2,104.6c0,0.3,0,0.7,0,1l0,0C0.1,105.3,0.1,104.9,0.2,104.6L0.2,104.6z"/>
	<path class="st0" d="M73.5,6.3c-0.3,0.1-0.5,0.2-0.8,0.3c0,0-0.1,0-0.1,0.1l0,0.1c0.3-0.1,0.6-0.2,0.9-0.3L73.5,6.3z"/>
	<path class="st0" d="M68.8,8.1C68.8,8.1,68.7,8.2,68.8,8.1c-0.4,0.1-0.6,0.3-0.9,0.4l0.1,0.1c0.3-0.1,0.6-0.3,0.9-0.4L68.8,8.1z"/>
	<path class="st0" d="M83.1,3.4C83.1,3.4,83.1,3.4,83.1,3.4c-0.3,0.1-0.6,0.2-1,0.3l0,0.1c0.3-0.1,0.6-0.2,1-0.3L83.1,3.4z"/>
	<path class="st0" d="M87.9,2.3C87.9,2.3,87.9,2.3,87.9,2.3c-0.4,0.1-0.7,0.1-1,0.2l0,0.1c0.3-0.1,0.6-0.1,1-0.2L87.9,2.3z"/>
	<path class="st0" d="M59.7,12.3C59.7,12.3,59.7,12.3,59.7,12.3c-0.3,0.2-0.6,0.3-0.9,0.5l0.1,0.1c0.3-0.2,0.6-0.3,0.9-0.5
		L59.7,12.3z"/>
	<path class="st0" d="M42.9,23.1C42.9,23.1,42.9,23.1,42.9,23.1c-0.3,0.2-0.5,0.4-0.8,0.6l0.1,0.1C42.4,23.6,42.7,23.4,42.9,23.1
		L42.9,23.1z"/>
	<path class="st0" d="M211.4,65.4c-0.1-0.3-0.3-0.6-0.4-0.9c0,0,0,0,0,0l-0.1,0c0.1,0.3,0.3,0.6,0.4,0.9L211.4,65.4z"/>
	<path class="st0" d="M92.8,1.4c-0.3,0-0.5,0.1-0.8,0.1c-0.1,0-0.1,0-0.2,0l0,0.1c0.3-0.1,0.7-0.1,1-0.2L92.8,1.4z"/>
	<path class="st0" d="M64.2,10.1c-0.3,0.1-0.6,0.3-0.9,0.4l0.1,0.1c0.3-0.1,0.6-0.3,0.9-0.4L64.2,10.1z"/>
	<path class="st0" d="M156.3,9.9c-0.3-0.1-0.6-0.3-0.9-0.4c0,0,0,0,0,0l-0.1,0.1c0.3,0.1,0.6,0.3,0.9,0.4L156.3,9.9z"/>
	<path class="st0" d="M39,26.3c-0.3,0.2-0.5,0.4-0.8,0.6l0.1,0.1C38.5,26.8,38.8,26.6,39,26.3L39,26.3z"/>
	<path class="st0" d="M160.8,12.1c-0.1-0.1-0.2-0.1-0.3-0.2c-0.2-0.1-0.4-0.2-0.6-0.3l-0.1,0.1c0.3,0.1,0.6,0.3,0.9,0.4L160.8,12.1z
		"/>
	<path class="st0" d="M169.5,17C169.5,17,169.4,17,169.5,17c-0.3-0.2-0.6-0.4-0.8-0.5l-0.1,0.1c0.3,0.2,0.6,0.4,0.8,0.5L169.5,17z"
		/>
	<path class="st0" d="M147.1,6.2c-0.1,0-0.1,0-0.2-0.1c-0.3-0.1-0.5-0.2-0.8-0.3L146.1,6c0.3,0.1,0.6,0.2,0.9,0.3L147.1,6.2z"/>
	<path class="st0" d="M112.8,0c-0.3,0-0.7,0-1,0l0,0.2c0.3,0,0.7,0,1,0L112.8,0z"/>
	<path class="st0" d="M137.5,3.3c-0.3-0.1-0.6-0.2-1-0.2l0,0.2c0.3,0.1,0.6,0.2,1,0.2L137.5,3.3z"/>
	<path class="st0" d="M122.7,0.7C122.7,0.7,122.7,0.7,122.7,0.7c-0.3,0-0.7-0.1-1-0.1c0,0,0,0,0,0l0,0.2c0.3,0,0.7,0.1,1,0.1
		L122.7,0.7z"/>
	<path class="st0" d="M107.8,0C107.8,0,107.8,0,107.8,0c-0.3,0-0.7,0-1,0l0,0.2c0.3,0,0.7,0,1,0L107.8,0z"/>
	<path class="st0" d="M132.6,2.2c0,0-0.1,0-0.1,0c-0.3-0.1-0.6-0.1-0.8-0.2l0,0.2c0.3,0.1,0.7,0.1,1,0.2L132.6,2.2z"/>
	<path class="st0" d="M55.3,14.7c-0.3,0.2-0.6,0.3-0.9,0.5l0.1,0.1c0.3-0.2,0.6-0.3,0.9-0.5L55.3,14.7z"/>
	<path class="st0" d="M188.8,32.7L188.8,32.7c-0.1-0.3-0.4-0.6-0.6-0.8c0,0,0,0,0,0l-0.1,0.1C188.3,32.2,188.6,32.5,188.8,32.7z"/>
	<path class="st0" d="M0.5,99.6c0,0.3-0.1,0.7-0.1,1l0,0C0.5,100.3,0.5,100,0.5,99.6L0.5,99.6z"/>
	<path class="st0" d="M195.6,40c-0.1-0.1-0.2-0.3-0.4-0.4c-0.1-0.1-0.2-0.2-0.3-0.3l-0.1,0.1c0.2,0.3,0.4,0.5,0.6,0.8L195.6,40z"/>
	<path class="st0" d="M192.3,36.2C192.3,36.2,192.3,36.2,192.3,36.2c-0.2-0.2-0.4-0.5-0.7-0.7c0,0,0,0,0,0l-0.1,0.1
		c0.2,0.2,0.5,0.5,0.7,0.7L192.3,36.2z"/>
	<path class="st0" d="M2,89.7c0,0.1-0.1,0.3-0.1,0.4c0,0.2-0.1,0.4-0.1,0.6l0,0C1.8,90.4,1.9,90.1,2,89.7L2,89.7z"/>
	<path class="st0" d="M31.7,33.1c-0.2,0.2-0.5,0.5-0.7,0.7l0.1,0.1C31.3,33.6,31.5,33.4,31.7,33.1L31.7,33.1z"/>
	<path class="st0" d="M206.9,56.5c-0.1-0.2-0.2-0.4-0.3-0.6c0-0.1-0.1-0.2-0.1-0.3l-0.1,0.1c0.2,0.3,0.3,0.6,0.5,0.9L206.9,56.5z"/>
	<path class="st0" d="M204.4,52.2c-0.1-0.2-0.2-0.3-0.3-0.5c-0.1-0.1-0.2-0.2-0.2-0.4l-0.1,0.1c0.2,0.3,0.4,0.6,0.5,0.8L204.4,52.2z
		"/>
	<path class="st0" d="M198.7,43.9c-0.2-0.2-0.3-0.4-0.5-0.6c0-0.1-0.1-0.1-0.1-0.2l-0.1,0.1c0.2,0.3,0.4,0.5,0.6,0.8L198.7,43.9z"/>
	<path class="st0" d="M209.3,60.9C209.3,60.9,209.3,60.9,209.3,60.9c-0.2-0.3-0.3-0.6-0.4-0.9c0,0,0,0,0,0l-0.1,0.1
		c0.2,0.3,0.3,0.6,0.5,0.9L209.3,60.9z"/>
	<path class="st0" d="M7.4,70.5c-0.1,0.2-0.2,0.4-0.2,0.6c0,0.1-0.1,0.2-0.1,0.3l0,0C7.3,71.2,7.4,70.9,7.4,70.5L7.4,70.5z"/>
	<path class="st0" d="M3,84.8C3,84.8,3,84.8,3,84.8c-0.1,0.3-0.2,0.6-0.2,1l0,0C2.9,85.5,2.9,85.2,3,84.8L3,84.8z"/>
	<path class="st0" d="M25,40.5c-0.1,0.1-0.2,0.3-0.4,0.4c-0.1,0.1-0.2,0.2-0.3,0.3l0.1,0.1C24.6,41.1,24.8,40.8,25,40.5L25,40.5z"/>
	<path class="st0" d="M28.2,36.7c-0.1,0.1-0.2,0.2-0.3,0.3c-0.1,0.1-0.3,0.3-0.4,0.4l0.1,0.1C27.9,37.3,28.1,37,28.2,36.7L28.2,36.7
		z"/>
	<path class="st0" d="M9.4,65.9c0,0.1-0.1,0.1-0.1,0.2c-0.1,0.2-0.2,0.5-0.3,0.7l0,0C9.1,66.6,9.3,66.3,9.4,65.9L9.4,65.9z"/>
	<path class="st0" d="M5.7,75.2c-0.1,0.3-0.2,0.6-0.3,1l0,0C5.6,75.9,5.7,75.6,5.7,75.2L5.7,75.2z"/>
	<path class="st0" d="M185.3,29.1C185.3,29.1,185.3,29.1,185.3,29.1c-0.2-0.2-0.5-0.5-0.7-0.7c0,0,0,0,0,0l-0.1,0.1
		c0.2,0.2,0.5,0.4,0.7,0.7L185.3,29.1z"/>
	<path class="st0" d="M177.7,22.7c-0.3-0.2-0.5-0.4-0.8-0.6l-0.1,0.1c0.3,0.2,0.5,0.4,0.8,0.6L177.7,22.7z"/>
	<path class="st0" d="M1.1,94.7c0,0.3-0.1,0.7-0.1,1l0,0C1.1,95.3,1.1,95,1.1,94.7L1.1,94.7z"/>
	<path class="st0" d="M11.5,61.4c-0.1,0.3-0.3,0.6-0.4,0.9l0.1,0C11.2,62,11.4,61.7,11.5,61.4L11.5,61.4z"/>
	<path class="st0" d="M21.9,44.4c-0.2,0.3-0.4,0.5-0.6,0.8l0.1,0C21.6,45,21.8,44.7,21.9,44.4L21.9,44.4z"/>
	<path class="st0" d="M78.2,4.8c-0.3,0.1-0.6,0.2-1,0.3l0,0.1c0.3-0.1,0.6-0.2,1-0.3L78.2,4.8z"/>
	<path class="st0" d="M46.9,20.1c-0.3,0.2-0.5,0.4-0.8,0.6l0.1,0.1C46.4,20.6,46.7,20.4,46.9,20.1L46.9,20.1z"/>
	<path class="st0" d="M35.2,29.6c-0.2,0.2-0.5,0.5-0.7,0.7l0.1,0.1C34.8,30.1,35.1,29.9,35.2,29.6L35.2,29.6z"/>
	<path class="st0" d="M220.2,124.1c0-0.2,0-0.4,0.1-0.6c0-0.1,0-0.2,0-0.4l-0.1,0C220.2,123.4,220.2,123.7,220.2,124.1L220.2,124.1z
		"/>
	<path class="st0" d="M208.3,162c0.1-0.1,0.1-0.2,0.2-0.3c0.1-0.2,0.2-0.4,0.3-0.6l0,0C208.6,161.4,208.4,161.7,208.3,162L208.3,162
		z"/>
	<path class="st0" d="M206.4,165.5L206.4,165.5C206.4,165.5,206.3,165.5,206.4,165.5C206.3,165.5,206.4,165.5,206.4,165.5z"/>
	<path class="st0" d="M216,143.6C216,143.6,216,143.6,216,143.6c0.1-0.3,0.2-0.6,0.3-1l0,0C216.1,142.9,216,143.3,216,143.6
		L216,143.6z"/>
	<path class="st0" d="M220.7,119.1c0-0.3,0-0.7,0.1-1c0,0,0,0,0,0l-0.1,0C220.7,118.4,220.7,118.8,220.7,119.1L220.7,119.1z"/>
	<path class="st0" d="M217.4,138.8C217.4,138.8,217.4,138.8,217.4,138.8c0.1-0.3,0.2-0.6,0.3-1l0,0
		C217.5,138.1,217.4,138.5,217.4,138.8L217.4,138.8z"/>
	<path class="st0" d="M219.5,129c0-0.2,0.1-0.4,0.1-0.6c0-0.1,0-0.3,0.1-0.4l0,0C219.5,128.4,219.5,128.7,219.5,129L219.5,129z"/>
	<path class="st0" d="M218.5,133.9c0.1-0.3,0.1-0.7,0.2-1l0,0C218.6,133.3,218.5,133.6,218.5,133.9L218.5,133.9z"/>
	<path class="st0" d="M220.9,114.1L220.9,114.1C221,114.1,221,114.1,220.9,114.1c0.1-0.3,0.1-0.7,0.1-1l-0.1,0
		C220.9,113.4,220.9,113.8,220.9,114.1z"/>
	<path class="st0" d="M210.5,157.5c0.1-0.3,0.3-0.6,0.4-0.9l0,0C210.8,156.9,210.7,157.2,210.5,157.5L210.5,157.5z"/>
	<path class="st0" d="M213.4,70.1c-0.1-0.3-0.3-0.6-0.4-0.9l-0.1,0C213,69.5,213.2,69.8,213.4,70.1L213.4,70.1z"/>
	<path class="st0" d="M212.5,153c0.1-0.3,0.3-0.6,0.4-0.9l0,0C212.8,152.4,212.7,152.7,212.5,153L212.5,153z"/>
	<path class="st0" d="M201.7,48c-0.2-0.3-0.4-0.5-0.6-0.8l-0.1,0.1c0.2,0.3,0.4,0.5,0.6,0.8L201.7,48z"/>
	<path class="st0" d="M221,109.1c0-0.3,0-0.7,0-1l-0.1,0C220.9,108.4,220.9,108.8,221,109.1L221,109.1z"/>
	<path class="st0" d="M214.4,148.3c0.1-0.3,0.2-0.6,0.3-0.9l0,0C214.6,147.7,214.5,148,214.4,148.3L214.4,148.3z"/>
	<path class="st0" d="M220.8,104.1c0-0.3,0-0.7-0.1-1l-0.1,0C220.7,103.5,220.7,103.8,220.8,104.1L220.8,104.1z"/>
	<path class="st0" d="M220.4,99.1c0-0.3-0.1-0.7-0.1-1l-0.1,0C220.3,98.5,220.3,98.8,220.4,99.1L220.4,99.1z"/>
	<path class="st0" d="M181.5,25.8c-0.3-0.2-0.5-0.4-0.8-0.6l-0.1,0.1c0.3,0.2,0.5,0.4,0.8,0.6L181.5,25.8z"/>
	<path class="st0" d="M215.1,74.8c-0.1-0.3-0.2-0.6-0.3-0.9l-0.1,0C214.8,74.2,214.9,74.5,215.1,74.8L215.1,74.8z"/>
	<path class="st0" d="M173.6,19.8c-0.3-0.2-0.5-0.4-0.8-0.6l-0.1,0.1c0.3,0.2,0.5,0.4,0.8,0.6L173.6,19.8z"/>
	<path class="st0" d="M127.7,1.3c-0.3-0.1-0.7-0.1-1-0.1l0,0.2c0.3,0,0.7,0.1,1,0.1L127.7,1.3z"/>
	<path class="st0" d="M117.8,0.2c-0.3,0-0.7,0-1-0.1l0,0.2c0.3,0,0.7,0,1,0.1L117.8,0.2z"/>
	<path class="st0" d="M102.8,0.3c-0.3,0-0.7,0-1,0.1l0,0.1c0.3,0,0.7,0,1-0.1L102.8,0.3z"/>
	<path class="st0" d="M97.8,0.7c-0.3,0-0.7,0.1-1,0.1l0,0.1c0.3,0,0.7-0.1,1-0.1L97.8,0.7z"/>
	<path class="st0" d="M165.2,14.4c-0.3-0.2-0.6-0.3-0.9-0.5l-0.1,0.1c0.3,0.2,0.6,0.3,0.9,0.5L165.2,14.4z"/>
	<path class="st0" d="M151.7,7.9c-0.3-0.1-0.6-0.3-0.9-0.4l-0.1,0.1c0.3,0.1,0.6,0.2,0.9,0.4L151.7,7.9z"/>
	<path class="st0" d="M142.3,4.6c-0.3-0.1-0.6-0.2-1-0.3l0,0.2c0.3,0.1,0.6,0.2,1,0.3L142.3,4.6z"/>
	<path class="st0" d="M0,109.6c0,0.3,0,0.6,0,0.9c0,0,0,0,0,0.1C0,110.2,0,109.9,0,109.6L0,109.6z"/>
</g>
</svg>
