<?xml version="1.0" encoding="utf-8"?>
<!-- Generator: Adobe Illustrator 22.0.0, SVG Export Plug-In . SVG Version: 6.00 Build 0)  -->
<svg version="1.1" id="Слой_1" xmlns="http://www.w3.org/2000/svg" xmlns:xlink="http://www.w3.org/1999/xlink" x="0px" y="0px"
	 viewBox="0 0 221 221" style="enable-background:new 0 0 221 221;" xml:space="preserve">
<style type="text/css">
	.st0{fill:#FFFFFF;}
</style>
<title>Oval@2x</title>
<desc>Created with Sketch.</desc>
<path class="st0" d="M0,0v110.5c0-0.3,0-0.6,0-0.9l24,0.2l0,0.8H0c0,0,0-0.1,0-0.1V221h110.5v-24l0.8,0l0.2,24c-0.3,0-0.7,0-1,0H221
	V0H0z M92.8,1.4l3.8,23.7l-0.7,0.1l-4-23.6C92.2,1.5,92.5,1.5,92.8,1.4z M87.9,2.3l4.9,23.5L92,26L86.9,2.5
	C87.3,2.5,87.6,2.4,87.9,2.3z M83,3.4L89,26.7l-0.7,0.2L82.1,3.7C82.4,3.6,82.7,3.5,83,3.4z M78.2,4.8l7,23L84.5,28L77.3,5.1
	C77.6,5,77.9,4.9,78.2,4.8z M73.5,6.4l8,22.6l-0.8,0.3L72.5,6.7C72.8,6.6,73.2,6.5,73.5,6.4z M68.8,8.2l9.1,22.2l-0.8,0.3L67.9,8.5
	C68.2,8.4,68.5,8.3,68.8,8.2z M64.2,10.1l10.1,21.8l-0.7,0.3L63.3,10.6C63.6,10.4,63.9,10.3,64.2,10.1z M59.7,12.4l11,21.3L70,34
	L58.8,12.8C59.1,12.7,59.4,12.5,59.7,12.4z M55.3,14.8l12,20.8l-0.7,0.4L54.4,15.3C54.7,15.1,55,14.9,55.3,14.8z M51,17.4L64,37.6
	L63.3,38L50.2,17.9C50.5,17.7,50.7,17.5,51,17.4z M46.9,20.2l13.8,19.6l-0.6,0.4l-14-19.5C46.3,20.5,46.6,20.3,46.9,20.2z
	 M42.9,23.1l14.7,19l-0.6,0.5L42.1,23.7C42.3,23.5,42.6,23.3,42.9,23.1z M39,26.3l15.5,18.3l-0.6,0.5L38.2,26.9
	C38.5,26.7,38.7,26.5,39,26.3z M35.2,29.6l16.3,17.6L51,47.7L34.5,30.3C34.7,30.1,35,29.8,35.2,29.6z M31.7,33.1l17.1,16.8l-0.5,0.6
	L31,33.8C31.2,33.6,31.4,33.3,31.7,33.1z M28.2,36.7l17.9,16l-0.5,0.6l-18-15.9C27.8,37.2,28,37,28.2,36.7z M25,40.5l18.6,15.2
	l-0.5,0.6l-18.7-15C24.6,41,24.8,40.8,25,40.5z M21.9,44.5l19.2,14.4l-0.5,0.6L21.3,45.3C21.5,45,21.7,44.7,21.9,44.5z M19,48.5
	L38.9,62l-0.4,0.7l-20-13.3C18.6,49.1,18.8,48.8,19,48.5z M16.3,52.7l20.4,12.6l-0.4,0.7L15.8,53.6C16,53.3,16.1,53,16.3,52.7z
	 M13.8,57l21,11.6l-0.4,0.7L13.3,57.9C13.5,57.6,13.6,57.3,13.8,57z M11.5,61.4L33,72.1l-0.3,0.7L11,62.3
	C11.2,62,11.3,61.7,11.5,61.4z M9.4,66l22,9.7L31,76.4L9,66.9C9.1,66.6,9.2,66.3,9.4,66z M7.4,70.6l22.4,8.7L29.5,80L7.1,71.5
	C7.2,71.2,7.3,70.9,7.4,70.6z M5.7,75.3l22.7,7.7l-0.2,0.7L5.4,76.2C5.5,75.9,5.6,75.6,5.7,75.3z M4.3,80l23.1,6.6l-0.2,0.7L4,81
	C4.1,80.7,4.2,80.3,4.3,80z M3,84.9l23.3,5.6l-0.2,0.7L2.8,85.8C2.8,85.5,2.9,85.2,3,84.9z M2,89.8l23.6,4.5L25.4,95L1.8,90.7
	C1.8,90.4,1.9,90.1,2,89.8z M1.1,94.7l23.7,3.4l-0.1,0.7L1,95.7C1,95.3,1.1,95,1.1,94.7z M0.5,99.6l23.9,2.3l-0.1,0.8l-23.9-2.1
	C0.5,100.3,0.5,100,0.5,99.6z M0.1,105.6c0-0.3,0-0.7,0-1l24,1.3l0,0.8L0.1,105.6z M0.1,114.6l24-0.9l0,0.8l-24,1.1
	C0.1,115.3,0.1,115,0.1,114.6z M0.4,119.6l23.9-2l0.1,0.8l-23.9,2.1C0.4,120.3,0.4,119.9,0.4,119.6z M0.9,124.6l23.8-3l0.1,0.8
	L1,125.6C1,125.2,0.9,124.9,0.9,124.6z M1.6,129.5l23.6-4.1l0.1,0.8l-23.6,4.3C1.8,130.2,1.7,129.8,1.6,129.5z M2.6,134.4l23.4-5.2
	l0.2,0.7l-23.4,5.4C2.7,135.1,2.7,134.7,2.6,134.4z M3.8,139.3l23.2-6.2l0.2,0.7l-23.1,6.5C4,139.9,3.9,139.6,3.8,139.3z M5.2,144.1
	l22.9-7.3l0.2,0.7L5.5,145C5.4,144.7,5.3,144.4,5.2,144.1z M6.8,148.8l22.5-8.3l0.3,0.8l-22.4,8.5C7.1,149.4,6.9,149.1,6.8,148.8z
	 M8.7,153.5l22.1-9.3l0.3,0.7l-22,9.5C8.9,154.1,8.8,153.8,8.7,153.5z M10.7,158l21.7-10.3l0.4,0.7l-21.6,10.5
	C11,158.6,10.9,158.3,10.7,158z M13,162.5l21.2-11.3l0.4,0.7l-21.1,11.5C13.3,163.1,13.1,162.8,13,162.5z M15.5,166.9l20.6-12.2
	l0.4,0.6L16,167.7C15.8,167.5,15.6,167.2,15.5,166.9z M18.1,171.1l20-13.2l0.4,0.6L18.7,172C18.5,171.7,18.3,171.4,18.1,171.1z
	 M20.9,175.2l19.4-14.1l0.4,0.6L21.5,176C21.3,175.8,21.1,175.5,20.9,175.2z M24,179.2l18.8-14.9l0.5,0.7L24.6,180
	C24.4,179.7,24.2,179.5,24,179.2z M27.2,183.1l18.1-15.8l0.6,0.6l-18,15.9C27.6,183.6,27.4,183.3,27.2,183.1z M30.5,186.8l17.4-16.6
	l0.5,0.6l-17.2,16.7C31,187.2,30.8,187,30.5,186.8z M34.1,190.3L50.7,173l0.6,0.6L34.8,191C34.6,190.8,34.3,190.5,34.1,190.3z
	 M37.8,193.7l15.8-18l0.6,0.5l-15.7,18.2C38.3,194.1,38,193.9,37.8,193.7z M41.6,196.9l15-18.7l0.6,0.4l-14.8,18.9
	C42.1,197.3,41.8,197.1,41.6,196.9z M45.6,199.9l14.1-19.4l0.7,0.5l-13.9,19.5C46.1,200.3,45.8,200.1,45.6,199.9z M49.7,202.7
	l13.2-20l0.6,0.4l-13,20.1C50.2,203.1,49.9,202.9,49.7,202.7z M53.9,205.4l12.3-20.6l0.6,0.4l-12.1,20.7
	C54.5,205.7,54.2,205.6,53.9,205.4z M58.2,207.9l11.4-21.1l0.7,0.4l-11.2,21.2C58.8,208.2,58.5,208,58.2,207.9z M62.7,210.1
	L73,188.5l0.7,0.4l-10.2,21.7C63.3,210.4,63,210.3,62.7,210.1z M67.2,212.2l9.4-22.1l0.8,0.3l-9.2,22.1
	C67.8,212.4,67.5,212.3,67.2,212.2z M71.8,214l8.4-22.5l0.8,0.3l-8.2,22.5C72.5,214.3,72.1,214.2,71.8,214z M76.5,215.7l7.4-22.8
	l0.7,0.2L77.5,216C77.2,215.9,76.9,215.8,76.5,215.7z M81.3,217.1l6.3-23.1l0.7,0.2l-6.1,23.2C82,217.3,81.7,217.2,81.3,217.1z
	 M86.2,218.3l5.3-23.4l0.8,0.2l-5.1,23.5C86.8,218.5,86.5,218.4,86.2,218.3z M91.1,219.3l4.2-23.6l0.8,0.1l-4,23.7
	C91.7,219.4,91.4,219.4,91.1,219.3z M97,220.2c-0.3,0-0.7-0.1-1-0.1l3.1-23.8l0.8,0.1L97,220.2z M99.7,24.7L96.8,0.8
	c0.3,0,0.7-0.1,1-0.1l2.7,23.8L99.7,24.7z M102,220.7c-0.3,0-0.7-0.1-1-0.1l2-23.9l0.8,0.1L102,220.7z M103.6,24.3l-1.9-23.9
	c0.3,0,0.7,0,1-0.1l1.6,23.9L103.6,24.3z M107,220.9c-0.3,0-0.7,0-1,0l1-24l0.8,0L107,220.9z M107.5,24l-0.8-24c0.3,0,0.7,0,1,0
	l0.6,24L107.5,24z M220.8,104.1l-24,1.3l0-0.7l23.9-1.6C220.8,103.5,220.8,103.8,220.8,104.1z M220.4,99.2l-23.9,2.5l-0.1-0.8
	l23.8-2.7C220.3,98.5,220.4,98.8,220.4,99.2z M219.8,94.2l-23.7,3.5l-0.1-0.8l23.7-3.7C219.7,93.5,219.8,93.9,219.8,94.2z M219,89.3
	l-23.6,4.6l-0.2-0.8l23.5-4.8C218.8,88.6,218.9,88.9,219,89.3z M217.9,84.4L194.6,90l-0.2-0.7l23.3-5.8
	C217.7,83.7,217.8,84.1,217.9,84.4z M216.6,79.6l-23,6.7l-0.2-0.7l23-6.9C216.4,78.9,216.5,79.2,216.6,79.6z M215.1,74.8l-22.7,7.8
	l-0.3-0.8l22.6-7.9C214.9,74.1,215,74.5,215.1,74.8z M213.4,70.1L191,78.8l-0.3-0.7l22.3-9C213.1,69.4,213.2,69.8,213.4,70.1z
	 M211.4,65.5l-21.9,9.8l-0.3-0.8l21.8-10C211.2,64.8,211.3,65.1,211.4,65.5z M209.3,60.9l-21.4,10.8l-0.4-0.7l21.4-11
	C209,60.3,209.1,60.6,209.3,60.9z M206.9,56.5L186,68.2l-0.4-0.7l20.8-11.9C206.6,55.9,206.8,56.2,206.9,56.5z M204.4,52.2L184,64.9
	l-0.4-0.7l20.3-12.9C204,51.6,204.2,51.9,204.4,52.2z M201.6,48l-19.8,13.6l-0.5-0.7l19.6-13.8C201.3,47.5,201.4,47.7,201.6,48z
	 M198.7,43.9l-19.1,14.5l-0.5-0.6l19-14.7C198.3,43.4,198.5,43.7,198.7,43.9z M195.6,40l-18.5,15.3l-0.5-0.6L195,39.3
	C195.2,39.5,195.4,39.8,195.6,40z M192.3,36.2l-17.8,16.1l-0.6-0.6l17.7-16.2C191.9,35.8,192.1,36,192.3,36.2z M188.9,32.6l-17,16.9
	l-0.6-0.6l16.9-17C188.4,32.2,188.7,32.4,188.9,32.6z M185.3,29.2L169,46.8l-0.6-0.5l16.1-17.8C184.8,28.7,185,28.9,185.3,29.2z
	 M181.5,25.9l-15.4,18.4l-0.6-0.5l15.3-18.5C181,25.4,181.3,25.6,181.5,25.9z M177.6,22.7l-14.6,19l-0.6-0.5l14.4-19.2
	C177.1,22.3,177.4,22.5,177.6,22.7z M173.6,19.8l-13.7,19.7l-0.6-0.4l13.5-19.8C173.1,19.4,173.3,19.6,173.6,19.8z M169.5,17
	l-12.8,20.3l-0.7-0.4l12.6-20.4C168.9,16.7,169.2,16.9,169.5,17z M165.2,14.5l-11.9,20.9l-0.7-0.4l11.7-21
	C164.6,14.1,164.9,14.3,165.2,14.5z M160.8,12.1l-10.9,21.4l-0.7-0.4l10.8-21.4C160.2,11.8,160.5,11.9,160.8,12.1z M156.3,9.9
	l-10,21.8l-0.7-0.3l9.8-21.9C155.7,9.6,156,9.8,156.3,9.9z M151.7,8l-9,22.3l-0.7-0.3l8.7-22.3C151.1,7.7,151.4,7.8,151.7,8z
	 M147,6.2l-7.9,22.6l-0.7-0.3l7.7-22.7C146.4,6,146.7,6.1,147,6.2z M142.3,4.6l-6.9,23l-0.7-0.2l6.7-23C141.7,4.5,142,4.6,142.3,4.6
	z M137.5,3.3l-5.8,23.3l-0.7-0.2l5.6-23.3C136.8,3.2,137.1,3.2,137.5,3.3z M132.6,2.2l-4.8,23.5l-0.7-0.1L131.6,2
	C131.9,2.1,132.3,2.1,132.6,2.2z M126.7,1.2c0.3,0,0.7,0.1,1,0.1L124,25l-0.8-0.1L126.7,1.2z M121.7,0.6c0.3,0,0.7,0.1,1,0.1
	l-2.6,23.8l-0.7-0.1L121.7,0.6z M112.3,24l-0.8,0l0.2-24c0.3,0,0.7,0,1,0L112.3,24z M115.5,220.9l-1.1-24l0.7,0l1.3,24
	C116.2,220.9,115.8,220.9,115.5,220.9z M116.2,24.2l-0.8,0l1.3-24c0.3,0,0.7,0,1,0.1L116.2,24.2z M120.5,220.5l-2.1-23.9l0.7-0.1
	l2.4,23.9C121.1,220.5,120.8,220.5,120.5,220.5z M125.5,220l-3.2-23.8l0.9-0.1l3.4,23.8C126.1,219.9,125.8,219.9,125.5,220z
	 M130.4,219.2l-4.3-23.6l0.8-0.2l4.4,23.6C131,219.1,130.7,219.2,130.4,219.2z M135.3,218.2l-5.3-23.4l0.8-0.2l5.6,23.3
	C135.9,218.1,135.6,218.1,135.3,218.2z M140.1,217l-6.4-23.1l0.7-0.2l6.6,23.1C140.8,216.8,140.4,216.9,140.1,217z M144.9,215.5
	l-7.5-22.8l0.8-0.3l7.6,22.8C145.6,215.3,145.2,215.4,144.9,215.5z M149.6,213.9l-8.5-22.4l0.7-0.3l8.7,22.4
	C150.3,213.6,150,213.7,149.6,213.9z M154.3,212l-9.5-22l0.7-0.3l9.7,21.9C154.9,211.7,154.6,211.8,154.3,212z M158.8,209.9
	l-10.5-21.6l0.7-0.3l10.7,21.5C159.4,209.6,159.1,209.7,158.8,209.9z M163.3,207.6l-11.5-21.1l0.7-0.4l11.6,21
	C163.9,207.3,163.6,207.4,163.3,207.6z M167.6,205.1l-12.4-20.5l0.6-0.4l12.7,20.4C168.2,204.8,167.9,204.9,167.6,205.1z
	 M171.9,202.4l-13.3-19.9l0.6-0.4l13.6,19.8C172.4,202,172.1,202.2,171.9,202.4z M175.9,199.5l-14.3-19.3l0.6-0.5l14.4,19.2
	C176.5,199.1,176.2,199.3,175.9,199.5z M179.9,196.5l-15.1-18.7l0.6-0.5l15.3,18.5C180.4,196.1,180.2,196.3,179.9,196.5z
	 M183.7,193.2l-15.9-18l0.5-0.5l16.1,17.8C184.2,192.8,184,193,183.7,193.2z M187.4,189.9l-16.7-17.2l0.6-0.6l16.8,17.1
	C187.9,189.4,187.6,189.6,187.4,189.9z M190.9,186.3l-17.5-16.5l0.5-0.6l17.6,16.3C191.4,185.8,191.1,186.1,190.9,186.3z
	 M194.2,182.6l-18.2-15.7l0.5-0.6l18.3,15.5C194.7,182.1,194.5,182.3,194.2,182.6z M197.4,178.7l-18.9-14.8l0.5-0.6l19,14.6
	C197.8,178.2,197.6,178.5,197.4,178.7z M200.4,174.7l-19.5-14l0.5-0.7l19.6,13.8C200.8,174.2,200.6,174.5,200.4,174.7z M203.2,170.6
	l-20.1-13l0.4-0.7l20.3,12.9C203.6,170.1,203.4,170.3,203.2,170.6z M205.8,166.4l-20.7-12.1l0.4-0.7l20.8,12
	C206.2,165.8,206,166.1,205.8,166.4z M208.3,162l-21.2-11.2l0.4-0.7l21.3,11C208.6,161.4,208.4,161.7,208.3,162z M210.5,157.5
	l-21.7-10.2l0.3-0.7l21.8,10C210.8,156.9,210.6,157.2,210.5,157.5z M212.5,153l-22.1-9.3l0.3-0.7l22.2,9
	C212.8,152.4,212.7,152.7,212.5,153z M214.3,148.3l-22.5-8.2l0.3-0.7l22.6,8C214.6,147.7,214.5,148,214.3,148.3z M216,143.6
	l-22.9-7.2l0.2-0.7l23,7C216.1,143,216.1,143.3,216,143.6z M217.3,138.8l-23.2-6.1l0.2-0.8l23.3,5.9
	C217.5,138.2,217.4,138.5,217.3,138.8z M218.5,133.9l-23.5-5.1l0.2-0.7l23.5,4.8C218.6,133.3,218.6,133.6,218.5,133.9z M219.4,129
	l-23.7-4l0.1-0.8l23.7,3.8C219.6,128.4,219.5,128.7,219.4,129z M220.2,124.1l-23.8-3l0.1-0.8l23.8,2.7
	C220.2,123.4,220.2,123.8,220.2,124.1z M220.7,119.1l-23.9-1.8l0.1-0.8l23.9,1.6C220.7,118.5,220.7,118.8,220.7,119.1z M220.9,114.1
	l-24-0.8l0-0.9l24,0.6C221,113.5,220.9,113.8,220.9,114.1z M197,109.4l0-0.8l24-0.5c0,0.3,0,0.7,0,1L197,109.4z"/>
</svg>
